<svg width="40" height="40" viewBox="0 0 40 40" fill="none" xmlns="http://www.w3.org/2000/svg">
<g clip-path="url(#clip0_3952_7723)">
<path d="M38.1593 5.29873C33.4342 5.29873 26.7587 5.69409 23.3473 9.10364C21.8704 10.5806 21.1328 12.9883 21.3243 15.7136C21.3492 16.0735 21.5885 16.3802 21.9324 16.4937C22.2746 16.6054 22.6505 16.5008 22.8846 16.226C24.7817 13.9937 27.1399 12.2048 29.8987 10.9086C30.1328 10.7969 30.4094 10.7881 30.6611 10.8767C30.8828 10.9565 31.0565 11.1072 31.1469 11.3005C31.3348 11.6977 31.2745 12.2207 30.6505 12.515C30.615 12.5327 30.5831 12.5558 30.5477 12.5718C30.5353 12.5771 30.5211 12.5754 30.5104 12.5807C23.7126 15.7757 20.3705 21.3502 18.8527 27.0823C17.7463 19.9051 15.4095 15.6799 13.202 13.086C11.6046 11.0151 10.0336 9.91755 9.12585 9.29704C8.95738 9.18177 8.44858 8.83428 8.23756 8.62326C7.89182 8.27752 7.89182 7.71543 8.23756 7.36969C8.5833 7.0257 9.14713 7.0257 9.53185 7.40867C9.62585 7.49203 9.77653 7.59841 9.96802 7.72607L10.1258 7.83246C11.4095 8.71185 13.7996 10.3448 15.9201 13.8608C16.1098 14.1746 16.4769 14.3431 16.8332 14.2756C17.1949 14.2118 17.4786 13.9335 17.5496 13.5735C18.0123 11.2101 17.8049 7.70297 15.6968 5.59485C12.2855 2.18705 5.61 1.79169 0.886629 1.79169C0.397188 1.7916 0 2.18879 0 2.67815C0 7.40327 0.39536 14.0788 3.80491 17.4901C5.22686 18.9121 7.42016 19.5504 9.59917 19.5504C11.3775 19.5504 13.1204 19.1053 14.4555 18.334C16.2764 22.107 17.7303 27.7436 17.7303 36.3658C17.7303 36.8552 18.1275 37.2524 18.6169 37.2524C19.1062 37.2524 19.5034 36.8552 19.5034 36.3658C19.5034 31.5556 20.3279 25.7826 23.3935 21.0308C24.6222 22.2312 26.7374 22.9918 29.0813 23.0627C29.1983 23.0663 29.3136 23.0681 29.4288 23.0681C31.81 23.0681 33.9146 22.3216 35.239 20.9954C38.6503 17.5841 39.0439 10.9086 39.0439 6.18336C39.0459 5.69409 38.6504 5.29873 38.1593 5.29873Z" fill="#00B307"/>
</g>
<defs>
<clipPath id="clip0_3952_7723">
<rect width="39.044" height="39.044" fill="white"/>
</clipPath>
</defs>
</svg>
