<svg width="46" height="32" viewBox="0 0 46 32" fill="none" xmlns="http://www.w3.org/2000/svg">
<rect x="1" y="0.617676" width="44" height="30.7647" rx="4.79412" fill="#1A1A1A" stroke="#333333"/>
<path fill-rule="evenodd" clip-rule="evenodd" d="M12.5063 11.0424C12.1286 11.5081 11.5243 11.8755 10.9199 11.823C10.8444 11.1932 11.1403 10.5241 11.4865 10.1109C11.8642 9.632 12.5252 9.29089 13.0603 9.26465C13.1233 9.92063 12.8777 10.5635 12.5063 11.0424ZM13.054 11.9476C12.5216 11.9157 12.0358 12.1145 11.6434 12.275C11.3908 12.3783 11.177 12.4658 11.0143 12.4658C10.8318 12.4658 10.6091 12.3737 10.3591 12.2702C10.0315 12.1346 9.657 11.9795 9.26426 11.987C8.36405 12.0001 7.52679 12.5314 7.06724 13.3776C6.12296 15.0701 6.82172 17.5759 7.73453 18.9535C8.18149 19.6357 8.71658 20.3835 9.42164 20.3573C9.73182 20.3451 9.95495 20.2464 10.1859 20.1443C10.4517 20.0268 10.7279 19.9047 11.1591 19.9047C11.5754 19.9047 11.8395 20.0236 12.093 20.1378C12.334 20.2463 12.5655 20.3506 12.9092 20.3442C13.6394 20.331 14.099 19.6619 14.5459 18.9797C15.0283 18.2475 15.2402 17.5329 15.2724 17.4245L15.2762 17.4119C15.2754 17.4111 15.2694 17.4083 15.2589 17.4033C15.0977 17.3263 13.8653 16.7384 13.8535 15.1619C13.8416 13.8386 14.831 13.1682 14.9867 13.0627C14.9962 13.0562 15.0026 13.0519 15.0055 13.0497C14.376 12.0788 13.3939 11.9738 13.054 11.9476ZM18.1091 20.272V10.0453H21.7917C23.6929 10.0453 25.0212 11.4097 25.0212 13.4039C25.0212 15.3981 23.6677 16.7756 21.7414 16.7756H19.6325V20.272H18.1091ZM19.6324 11.3835H21.3887C22.7107 11.3835 23.4661 12.1182 23.4661 13.4104C23.4661 14.7027 22.7107 15.444 21.3824 15.444H19.6324V11.3835ZM30.0511 19.0453C29.6482 19.8456 28.7606 20.3507 27.8037 20.3507C26.3873 20.3507 25.399 19.4717 25.399 18.1466C25.399 16.8347 26.3558 16.0803 28.1248 15.9688L30.0259 15.8507V15.2866C30.0259 14.4535 29.5034 14.0008 28.5717 14.0008C27.8037 14.0008 27.2434 14.4141 27.1301 15.0438H25.7578C25.8018 13.7188 26.9979 12.7545 28.6158 12.7545C30.3596 12.7545 31.4927 13.7056 31.4927 15.1816V20.272H30.0826V19.0453H30.0511ZM28.2128 19.1372C27.4007 19.1372 26.8845 18.7305 26.8845 18.1073C26.8845 17.4644 27.3818 17.0905 28.3324 17.0315L30.0258 16.9199V17.4972C30.0258 18.4549 29.2452 19.1372 28.2128 19.1372ZM36.17 20.6722C35.5593 22.463 34.8606 23.0534 33.3749 23.0534C33.2616 23.0534 32.8839 23.0402 32.7957 23.014V21.7873C32.8902 21.8004 33.1231 21.8136 33.2427 21.8136C33.9163 21.8136 34.294 21.5184 34.5269 20.7509L34.6654 20.2983L32.0844 12.8529H33.6771L35.4712 18.8945H35.5027L37.2968 12.8529H38.8454L36.17 20.6722Z" fill="white"/>
</svg>
