<svg width="45" height="32" viewBox="0 0 45 32" fill="none" xmlns="http://www.w3.org/2000/svg">
<rect x="0.5" y="0.5" width="44" height="30.7647" rx="4.79412" fill="#1A1A1A" stroke="#333333"/>
<path d="M18.5293 30.6765L43.6764 23.0662V26.7059C43.6764 28.8988 41.8987 30.6765 39.7058 30.6765H18.5293Z" fill="#FD6020"/>
<path fill-rule="evenodd" clip-rule="evenodd" d="M38.9046 12.0584C40.2881 12.0584 41.049 12.6984 41.049 13.9073C41.1182 14.8317 40.4956 15.6139 39.6655 15.7561L41.5332 18.3872H40.0806L38.4896 15.8272H38.3512V18.3872H37.1753V12.0584H38.9046ZM38.3508 14.9739H38.6967C39.4576 14.9739 39.8035 14.6184 39.8035 13.9784C39.8035 13.4095 39.4576 13.054 38.6967 13.054H38.3508V14.9739ZM33.0935 18.3872H36.4139V17.3205H34.2695V15.6139H36.3447V14.5473H34.2695V13.1251H36.4139V12.0584H33.0935V18.3872ZM29.6351 16.325L28.0441 12.0584H26.799L29.3584 18.5294H29.981L32.5404 12.0584H31.2953L29.6351 16.325ZM15.5929 15.2584C15.5929 17.0361 16.9764 18.5294 18.7058 18.5294C19.2592 18.5294 19.7434 18.3872 20.2276 18.1738V16.7517C19.8817 17.1783 19.3975 17.4628 18.8441 17.4628C17.7373 17.4628 16.8381 16.6094 16.8381 15.4717V15.3295C16.7689 14.1917 17.6682 13.1962 18.7749 13.1251C19.3283 13.1251 19.8817 13.4095 20.2276 13.8362V12.414C19.8126 12.1296 19.2592 12.0585 18.7749 12.0585C16.9764 11.9162 15.5929 13.4095 15.5929 15.2584ZM13.4469 14.4762C12.7552 14.1917 12.5477 14.0495 12.5477 13.694C12.6168 13.2673 12.9627 12.9118 13.3778 12.9829C13.7236 12.9829 14.0695 13.1962 14.3462 13.4806L14.9688 12.6273C14.4845 12.2007 13.862 11.9162 13.2394 11.9162C12.271 11.8451 11.4409 12.6273 11.3717 13.6229V13.694C11.3717 14.5473 11.7176 15.045 12.8244 15.4006C13.1011 15.4717 13.3778 15.6139 13.6544 15.7561C13.862 15.8984 14.0003 16.1117 14.0003 16.3961C14.0003 16.8939 13.5853 17.3205 13.1702 17.3205H13.1011C12.5477 17.3205 12.0634 16.965 11.8559 16.4672L11.095 17.2494C11.5101 18.0316 12.3401 18.4583 13.1702 18.4583C14.277 18.5294 15.1763 17.6761 15.2454 16.5383V16.325C15.1763 15.4717 14.8304 15.045 13.4469 14.4762ZM9.43543 18.3872H10.6114V12.0584H9.43543V18.3872ZM3.9707 12.0585H5.70005H6.04592C7.70609 12.1296 9.0204 13.5518 8.95122 15.2584C8.95122 16.1828 8.53618 17.0361 7.84444 17.6761C7.22188 18.1739 6.46096 18.4583 5.70005 18.3872H3.9707V12.0585ZM5.49264 17.3205C6.04603 17.3917 6.6686 17.1783 7.08364 16.8228C7.49868 16.3961 7.70621 15.8273 7.70621 15.1873C7.70621 14.6184 7.49868 14.0495 7.08364 13.6229C6.6686 13.2673 6.04603 13.054 5.49264 13.1251H5.14677V17.3205H5.49264Z" fill="white"/>
<path fill-rule="evenodd" clip-rule="evenodd" d="M23.7538 11.9117C22.0244 11.9117 20.5718 13.3339 20.5718 15.1828C20.5718 16.9605 21.9553 18.4538 23.7538 18.5249C25.5523 18.596 26.9358 17.1027 27.005 15.2539C26.9358 13.405 25.5523 11.9117 23.7538 11.9117V11.9117Z" fill="#FD6020"/>
</svg>
