<svg width="45" height="32" viewBox="0 0 45 32" fill="none" xmlns="http://www.w3.org/2000/svg">
<rect x="0.5" y="0.5" width="44" height="30.7647" rx="4.79412" fill="#1A1A1A" stroke="#333333"/>
<path fill-rule="evenodd" clip-rule="evenodd" d="M28.5585 24.3926C33.515 24.3926 37.533 20.4225 37.533 15.525C37.533 10.6275 33.515 6.65735 28.5585 6.65735C26.3372 6.65735 24.3043 7.4548 22.7372 8.77579C21.1701 7.45481 19.1372 6.65736 16.9158 6.65736C11.9594 6.65736 7.94141 10.6275 7.94141 15.525C7.94141 20.4225 11.9594 24.3926 16.9158 24.3926C19.1372 24.3926 21.1701 23.5952 22.7372 22.2742C24.3043 23.5952 26.3372 24.3926 28.5585 24.3926Z" fill="#ED0006"/>
<path fill-rule="evenodd" clip-rule="evenodd" d="M22.7368 22.2741C24.6663 20.6476 25.8898 18.2275 25.8898 15.525C25.8898 12.8225 24.6663 10.4024 22.7368 8.77588C24.304 7.45484 26.3369 6.65735 28.5583 6.65735C33.5147 6.65735 37.5327 10.6275 37.5327 15.525C37.5327 20.4225 33.5147 24.3926 28.5583 24.3926C26.3369 24.3926 24.304 23.5951 22.7368 22.2741Z" fill="#F9A000"/>
<path fill-rule="evenodd" clip-rule="evenodd" d="M22.737 22.2741C24.6665 20.6476 25.8899 18.2275 25.8899 15.525C25.8899 12.8225 24.6665 10.4024 22.737 8.77588C20.8075 10.4024 19.584 12.8225 19.584 15.525C19.584 18.2275 20.8075 20.6476 22.737 22.2741Z" fill="#FF5E00"/>
</svg>
