<svg width="45" height="32" viewBox="0 0 45 32" fill="none" xmlns="http://www.w3.org/2000/svg">
<rect x="0.5" y="0.5" width="44" height="30.7647" rx="4.79412" fill="#1A1A1A" stroke="#333333"/>
<path fill-rule="evenodd" clip-rule="evenodd" d="M14.2298 20.9889H11.5037L9.45943 12.9605C9.3624 12.5912 9.15638 12.2647 8.85333 12.1108C8.09703 11.7241 7.26364 11.4164 6.35449 11.2612V10.9521H10.7461C11.3522 10.9521 11.8067 11.4164 11.8825 11.9556L12.9432 17.7467L15.668 10.9521H18.3184L14.2298 20.9889ZM19.8327 20.9889H17.2581L19.3781 10.9521H21.9527L19.8327 20.9889ZM25.2856 13.7326C25.3614 13.192 25.8159 12.8829 26.3463 12.8829C27.1797 12.8053 28.0875 12.9605 28.8451 13.3459L29.2997 11.1849C28.5421 10.8758 27.7087 10.7206 26.9524 10.7206C24.4535 10.7206 22.6352 12.1108 22.6352 14.0403C22.6352 15.5082 23.9232 16.2789 24.8323 16.7432C25.8159 17.2062 26.1947 17.5153 26.119 17.9782C26.119 18.6727 25.3614 18.9818 24.6051 18.9818C23.6959 18.9818 22.7868 18.7503 21.9547 18.3636L21.5001 20.5259C22.4093 20.9112 23.3929 21.0665 24.302 21.0665C27.1039 21.1427 28.8451 19.7538 28.8451 17.6691C28.8451 15.0439 25.2856 14.89 25.2856 13.7326ZM37.8554 20.9889L35.8111 10.9521H33.6153C33.1608 10.9521 32.7062 11.2612 32.5547 11.7241L28.7692 20.9889H31.4196L31.9486 19.5223H35.205L35.5081 20.9889H37.8554ZM33.9923 13.6549L34.7486 17.4376H32.6286L33.9923 13.6549Z" fill="white"/>
</svg>
